PathFileType	4	(X/Y/Z)	D:\TRACE\spot_10-12-23\spot_arm_body_motion_3_8-platform.trc
DataRate	CameraRate	NumFrames	NumMarkers	Units	OrigDataRate	OrigDataStartFrame	OrigNumFrames
100.00	100.00	      30	5	mm	100.00	3501	      7000
Frame#	Time	Left_Front			Right_Front			Left_Aft			Right_Aft			Post			
		X1	Y1	Z1	X2	Y2	Z2	X3	Y3	Z3	X4	Y4	Z4	X5	Y5	Z5	

3501	35.000	-761.43750	-26.77074	-648.77222	810.91669	-21.67957	-641.66968	-678.55798	27.49953	487.95593	738.79156	36.75810	574.14917	21.09286	694.21588	-1003.06104	
3502	35.010	-761.15503	-26.60285	-648.63605	811.13574	-21.26986	-641.74536	-678.38647	27.25337	487.97568	739.20557	36.25595	574.03815	21.70974	694.62280	-1002.36682	
3503	35.020	-760.74500	-26.68447	-648.52533	811.54138	-21.27055	-641.86176	-678.00519	26.75440	488.07196	739.49823	35.71390	574.03619	22.16447	695.25067	-1001.68060	
3504	35.030	-760.10852	-25.96016	-648.54840	812.30695	-21.14302	-641.58423	-677.57581	26.45097	488.10104	739.77429	35.58586	574.25635	22.64130	695.87152	-1001.04938	
3505	35.040	-759.71790	-25.10761	-648.53387	812.68054	-20.41276	-641.60022	-677.30597	26.54826	488.12308	739.95612	35.50585	574.39185	22.05845	698.10132	-1000.71747	
3506	35.050	-759.57269	-25.04348	-648.41443	813.01013	-19.76842	-641.46246	-676.73022	26.59272	488.27451	740.31976	35.44050	574.47607	23.02988	696.92163	-999.81183	
3507	35.060	-759.51910	-24.95861	-648.21130	813.19757	-19.63558	-641.45685	-676.45441	26.24245	488.28583	740.88983	34.91810	574.49170	23.49211	697.37067	-999.68774	
3508	35.070	-759.06573	-24.86431	-648.16492	813.59332	-19.72592	-641.51154	-676.16962	25.64340	488.34769	741.26648	34.39223	574.61780	23.91133	697.79944	-999.20099	
3509	35.080	-758.59027	-24.28377	-648.24054	813.95209	-19.58888	-641.35260	-675.82410	25.33047	488.54852	741.75592	34.54758	575.29785	24.31131	698.48962	-999.02917	
3510	35.090	-758.11835	-23.68351	-648.03015	814.26886	-18.72297	-641.28253	-675.29016	25.22495	489.03085	742.07489	34.33524	575.43164	24.71012	699.09161	-998.91968	
3511	35.100	-757.78815	-23.09789	-647.86798	814.55341	-17.83474	-641.17670	-674.95618	25.11531	489.15494	742.39941	34.22353	575.57208	24.78793	700.07458	-998.66406	
3512	35.110	-757.53430	-22.75955	-647.84991	814.75232	-17.40192	-641.02155	-674.64545	24.77640	489.32727	742.63373	33.88586	575.63098	24.80232	700.83185	-998.15601	
3513	35.120	-757.21222	-22.54438	-647.87964	815.23413	-17.17860	-640.83575	-674.58710	24.45657	489.11557	742.91779	33.15569	575.63263	25.22441	701.36938	-998.08405	
3514	35.130	-757.14349	-21.79850	-647.69281	815.33740	-16.84723	-640.87781	-674.22095	23.72347	489.41705	743.14386	32.38942	575.79987	25.73534	702.04486	-997.35468	
3515	35.140	-756.53009	-21.35511	-647.61163	815.70911	-16.38832	-640.85455	-674.07849	23.39637	489.49643	743.52087	32.11371	576.00616	26.12143	702.99994	-996.87415	
3516	35.150	-756.28455	-20.57942	-647.49689	816.32452	-15.34549	-640.39130	-673.56348	23.19620	489.80466	743.89673	31.84571	576.14801	26.18736	703.99188	-996.52820	
3517	35.160	-756.07886	-19.80622	-647.42456	816.46045	-14.83593	-640.45795	-673.42285	23.00994	489.86652	744.15906	31.49386	576.29572	26.35926	705.00458	-995.95892	
3518	35.170	-755.91510	-19.29069	-647.30011	816.49750	-14.01927	-640.35327	-673.27252	22.36226	489.90988	744.32355	30.76145	576.33167	26.76100	705.90710	-994.90613	
3519	35.180	-755.77014	-18.76013	-647.20490	816.58606	-13.39474	-640.25220	-672.93518	21.67231	490.13422	744.48859	29.95526	576.53510	26.76774	706.89008	-993.95471	
3520	35.190	-755.39319	-18.10729	-647.03857	816.72662	-12.79969	-640.24756	-672.68036	21.30647	490.32135	744.61743	29.49366	576.62219	27.21738	707.67151	-993.23224	
3521	35.200	-755.21619	-17.27393	-646.82800	817.16406	-12.30437	-639.91541	-672.60498	21.10417	490.36456	744.78296	29.08575	576.79053	27.38907	708.68097	-992.13373	
3522	35.210	-755.21417	-16.60922	-646.84174	817.34607	-11.73192	-639.59863	-672.46576	20.87366	490.54401	744.97797	28.86149	576.94360	27.75647	709.77173	-990.98138	
3523	35.220	-754.88556	-16.05734	-646.62512	817.18286	-10.81137	-639.73816	-672.20685	20.40035	490.70844	745.16284	28.25840	577.21979	27.91176	710.78021	-989.97174	
3524	35.230	-754.70020	-15.53922	-646.39471	817.23669	-10.28850	-639.79102	-671.86279	19.69605	490.95987	745.40057	27.58646	577.35645	27.77532	711.65729	-988.77979	
3525	35.240	-754.85718	-14.52185	-646.42694	818.03387	-9.64786	-639.38660	-671.82568	19.01593	491.04050	745.56744	26.87223	577.49109	27.83724	712.67053	-987.25513	
3526	35.250	-754.34283	-14.13663	-646.22369	818.06470	-9.10272	-639.27185	-671.77686	18.72643	491.09381	745.87366	26.44719	577.77454	28.13155	713.69958	-986.15619	
3527	35.260	-754.29608	-13.05570	-646.07587	818.22498	-8.37630	-639.07733	-671.55835	18.41026	491.32068	746.00366	26.11782	578.08771	28.62247	714.95325	-985.02002	
3528	35.270	-754.06604	-12.55944	-645.99976	818.59717	-7.48173	-638.83820	-671.13074	17.96966	491.46893	746.05048	25.64142	578.33234	28.72381	715.90033	-983.77765	
3529	35.280	-754.02148	-11.83010	-645.82397	818.68610	-6.74166	-638.64539	-671.00739	17.43433	491.65384	746.21954	24.95537	578.45746	28.77489	717.08844	-983.08362	
3530	35.290	-753.86584	-11.06531	-645.57660	818.74103	-6.11490	-638.71637	-670.76990	16.75154	492.20337	746.19879	24.33040	578.81653	28.79725	718.07159	-981.94812	
